# xmcd
#
# Track frame offsets:
#	150
#	6085
#	21697
#	34038
#	44162
#	57473
#	68845
#	80562
#	94167
#	106143
#	120823
#	130774
#	141333
#	156927
#
# Disc length: 2298 seconds
#
# Revision: 1
# Processed by: cddbd v1.5.2PL0 Copyright (c) Steve Scherf et al.
# Submitted via: audiograbber 1.83.01
#
DISCID=c008f80e
DTITLE=Vern Young - Live on stage in Kempton PA
DYEAR=2004
DGENRE=Bluegrass
TTITLE0=Foggy Mtn Breakdown
TTITLE1=Each Season Changes You
TTITLE2=How Lonely Can You Get
TTITLE3=Give Me the Flowers While I'm Living
TTITLE4=No One Now
TTITLE5=Gold Watch and Chain
TTITLE6=Dobro Chimes
TTITLE7=Your Best Friend and Me
TTITLE8=This Year's Fallen Star
TTITLE9=Violet and a Rose
TTITLE10=He'll Save Your Soul
TTITLE11=I'll Be All Smiles Tonight
TTITLE12=Just Inside Your Arms
TTITLE13=Bringing Mary Home
EXTD=
EXTT0=
EXTT1=
EXTT2=
EXTT3=
EXTT4=
EXTT5=
EXTT6=
EXTT7=
EXTT8=
EXTT9=
EXTT10=
EXTT11=
EXTT12=
EXTT13=
PLAYORDER=
